<?xml version="1.0" encoding="UTF-8" standalone="no"?>
<svg width="80px" height="22px" viewBox="0 0 80 22" version="1.1" xmlns="http://www.w3.org/2000/svg" xmlns:xlink="http://www.w3.org/1999/xlink" xmlns:sketch="http://www.bohemiancoding.com/sketch/ns">
    <!-- Generator: Sketch 3.4.3 (16044) - http://www.bohemiancoding.com/sketch -->
    <title>Onshape_Blue_Logo</title>
    <desc>Created with Sketch.</desc>
    <defs></defs>
    <g id="Page-1" stroke="none" stroke-width="1" fill="none" fill-rule="evenodd" sketch:type="MSPage">
        <g id="Onshape_Blue_Logo" sketch:type="MSArtboardGroup">
            <rect id="Rectangle-271" sketch:type="MSShapeGroup" x="0" y="0" width="80" height="22"></rect>
            <g id="Onshape-logo" sketch:type="MSLayerGroup" fill="#1B5FAA">
                <path d="M69.3277963,11.5502585 C69.3277963,7.58715931 70.5785824,5.32364621 74.5641216,5.32364621 C77.8901199,5.32364621 79.0930991,7.51691235 79.0930991,10.3941107 L79.0930991,12.328829 L73.2430885,12.328829 C73.2430885,13.6020551 73.4557807,14.2859873 75.7671008,14.2859873 C76.5925025,14.2859873 77.842313,14.0742708 78.5028295,13.8859699 L78.6452747,16.9046378 C77.7486504,17.2109926 75.9554016,17.3524622 75.1543912,17.3524622 C70.7668832,17.3524622 69.3277963,15.159196 69.3277963,11.5502585 L69.3277963,11.5502585 Z M75.7202695,9.94628632 L75.7202695,9.73359414 C75.7202695,8.88477673 75.5544086,8.01254367 74.5875373,8.01254367 C73.4323651,8.01254367 73.2665042,8.86136108 73.2196729,9.94628632 L75.7202695,9.94628632 Z" id="Fill-14" sketch:type="MSShapeGroup"></path>
                <path d="M64.5627109,5.32315839 C63.5012013,5.32315839 62.2045596,5.55926622 61.3079352,6.29002971 L61.2845195,6.29002971 L61.0718274,5.55926622 L58.312683,5.55926622 L58.312683,14.1537864 L56.424796,14.1537864 L56.424796,8.48427151 C56.424796,6.12514449 54.2549455,5.32315839 51.7309332,5.32315839 C50.7162549,5.32315839 49.0420358,5.46462796 47.6497801,5.79537405 L47.7922253,8.8374576 C49.3727819,8.50768716 51.0001697,8.38963324 51.566048,8.38963324 C52.2968115,8.38963324 52.6987802,8.57793412 52.6987802,9.26186631 L52.6987802,9.89896719 C50.9523628,9.89896719 48.687874,10.135075 47.7210027,11.1019464 C47.0370705,11.7858785 46.8009627,12.7293342 46.8009627,13.6259586 C46.8009627,16.0319169 48.4059105,17.1568439 50.4333158,17.1968456 C51.0216341,17.2085535 52.0753385,17.1783082 53.1788011,17.1158665 L58.312683,17.1168421 L58.312683,21.9521744 L62.0865057,21.9521744 L62.0865057,17.2114804 C62.5577457,17.2817274 63.2894848,17.305143 63.7607248,17.305143 C67.1813614,17.305143 68.7609423,15.3011534 68.7609423,11.2200003 C68.7609423,8.0354715 67.9355406,5.32315839 64.5627109,5.32315839 M50.5279541,13.3430194 C50.5279541,13.2249655 50.5513697,12.8708038 50.7640619,12.6590873 C51.0938323,12.3283412 51.8489871,12.3049255 52.7456115,12.3049255 L52.7456115,14.0503673 C52.4626724,14.3098908 51.9192341,14.474776 51.566048,14.474776 C50.8577245,14.474776 50.5279541,14.0971986 50.5279541,13.3430194 M63.1948465,14.2542786 C62.8660518,14.2835482 62.3694448,14.2572056 62.0865057,14.1635429 L62.0865057,8.88526456 C62.3928604,8.64915673 62.9119074,8.4130489 63.5012013,8.4130489 C64.3978257,8.4130489 64.8456501,8.93209586 64.8456501,11.3848855 C64.8456501,13.3664351 64.4349005,14.1450056 63.1948465,14.2542786" id="Fill-16" sketch:type="MSShapeGroup"></path>
                <path d="M46.1570322,17.1168421 L42.3832095,17.1168421 L42.3832095,9.12039674 C42.3832095,8.64915673 42.193933,8.46085585 41.722693,8.46085585 C41.203646,8.46085585 40.5431295,8.71940369 40.0240825,9.09698109 L40.0240825,17.1168421 L36.2502598,17.1168421 L36.2502598,0.487826099 L40.0240825,0.487826099 L40.0240825,5.86562101 L40.0474982,5.86562101 C40.6377677,5.53585057 41.5100008,5.32315839 42.3363782,5.32315839 C44.2223139,5.32315839 46.1570322,6.03050623 46.1570322,8.43646455 L46.1570322,17.1168421 Z" id="Fill-18" sketch:type="MSShapeGroup"></path>
                <path d="M24.4744305,17.1168421 L21.6596739,17.1168421 L21.6596739,9.12039674 C21.6596739,8.64915673 21.4703974,8.46085585 20.9991574,8.46085585 C20.4801104,8.46085585 19.8195939,8.71940369 19.3005469,9.09698109 L19.3005469,17.1168421 L15.5267242,17.1168421 L15.5267242,5.55926622 L18.2868443,5.55926622 L18.4985608,6.29002971 L18.5229521,6.29002971 C19.2771312,5.74756709 20.3864478,5.32315839 21.6128426,5.32315839 C23.499754,5.32315839 25.4334966,6.03050623 25.4334966,8.43646455 L25.4334966,14.1518351 L27.4130949,14.1518351 L27.4130949,14.1528108 C28.6941262,14.1518351 30.0102811,14.1518351 30.6473819,14.1518351 C31.497175,14.1518351 31.7313315,14.1684212 31.7313315,13.7908438 C31.7313315,13.554736 31.5430307,13.3664351 31.118622,13.1781342 L28.9487715,12.2102872 C27.7457923,11.6922159 26.778921,10.6307063 26.778921,8.86087325 C26.778921,6.26661406 28.8307176,5.32315839 31.6845002,5.32315839 C32.3216011,5.32315839 33.8075194,5.36998969 34.7743907,5.53585057 L34.6329212,8.53110281 C33.6660498,8.36621759 32.0854933,8.31841063 31.7791385,8.31841063 C30.8825141,8.31841063 30.6229906,8.43646455 30.6229906,8.7906263 C30.6229906,9.12039674 30.8356828,9.215035 31.1888689,9.37992022 L33.5948272,10.5126524 C34.7041438,11.0316994 35.5295455,11.9985707 35.5295455,13.6259586 C35.5295455,15.7548317 34.2543681,16.7909743 32.3957507,17.1217204 L24.4744305,17.1168421 Z" id="Fill-20" sketch:type="MSShapeGroup"></path>
                <path d="M7.65194262,17.3526573 C2.74538772,17.3526573 0.906283326,14.7818137 0.906283326,9.167911 C0.906283326,3.55400826 2.74538772,0.959749066 7.65194262,0.959749066 C12.5341062,0.959749066 14.3507706,3.55400826 14.3507706,9.167911 C14.3507706,14.7818137 12.5341062,17.3526573 7.65194262,17.3526573 M7.65194262,13.9329963 C9.3973844,13.9329963 10.1759549,13.0832033 10.1759549,9.167911 C10.1759549,5.25261873 9.3973844,4.37941002 7.65194262,4.37941002 C5.88308518,4.37941002 5.12793038,5.27603439 5.12793038,9.167911 C5.12793038,13.0597876 5.88308518,13.9329963 7.65194262,13.9329963" id="Fill-22" sketch:type="MSShapeGroup"></path>
            </g>
        </g>
    </g>
</svg>